PathFileType	4	(X/Y/Z)	Patient4_TMGait_0pt2_03_left_25.trc.trc
DataRate	CameraRate	NumFrames	NumMarkers	Units	OrigDataRate	OrigDataStartFrame	OrigNumFrames
48.611111111111	48.611111111111	6	33	mm	48.611111111111	124	       141
Frame#	Time	Sacral			L.Shoulder			Chest			R.Shoulder			Neck			R.ASIS			L.ASIS			R.Thigh.Superior			R.Thigh.Lateral			R.Thigh.Inferior			R.Patella			L.Thigh.Superior			L.Thigh.Lateral			L.Thigh.Inferior			L.Patella			L.Shank.Superior			L.Shank.Lateral			L.Shank.Inferior			R.Shank.Superior			R.Shank.Lateral			R.Shank.Inferior			R.Heel			R.Midfoot.Superior			R.Midfoot.Lateral			R.Toe			L.Heel			L.Midfoot.Lateral			L.Midfoot.Superior			L.Toe			L.Elbow			L.Wrist			R.Elbow			R.Wrist			
		X1	Y1	Z1	X2	Y2	Z2	X3	Y3	Z3	X4	Y4	Z4	X5	Y5	Z5	X6	Y6	Z6	X7	Y7	Z7	X8	Y8	Z8	X9	Y9	Z9	X10	Y10	Z10	X11	Y11	Z11	X12	Y12	Z12	X13	Y13	Z13	X14	Y14	Z14	X15	Y15	Z15	X16	Y16	Z16	X17	Y17	Z17	X18	Y18	Z18	X19	Y19	Z19	X20	Y20	Z20	X21	Y21	Z21	X22	Y22	Z22	X23	Y23	Z23	X24	Y24	Z24	X25	Y25	Z25	X26	Y26	Z26	X27	Y27	Z27	X28	Y28	Z28	X29	Y29	Z29	X30	Y30	Z30	X31	Y31	Z31	X32	Y32	Z32	X33	Y33	Z33	

124	54.720285714286	926.222750976427	1008.063061409630	596.255369779121	1048.516666853951	1431.873868573579	375.381967830907	1196.878102754331	1354.238155666602	490.415591465349	1184.116809415873	1431.270278349489	679.667879343882	1088.162579610073	1490.388705041197	527.357099091871	1172.872038298313	930.067782727794	647.299844132409	1090.011486243230	960.485341521054	386.043308319181	1173.711951278471	722.082770963361	609.277177756855	1091.080092658494	619.192461260966	683.902495169776	1138.948945248365	561.847338180858	589.172128110987	1125.434288164267	473.074947097144	594.722416178274	1156.020577555563	761.004555751121	394.641561411735	1069.996154745952	629.668997869837	327.036767248682	1183.493232654754	572.137427391848	372.028545978082	1198.147316773785	507.984377191667	367.735257296654	1181.163528660543	437.728810433705	352.097825782164	1106.022436543035	315.683226402797	294.812302694518	1190.340031299184	208.180403473798	337.513362781978	1083.239114320503	389.516573300499	604.923761992671	1006.055971922560	295.532060828984	675.612696575362	1019.014690450727	198.904070774714	604.440130147907	859.363476275032	46.124325742072	586.071631700687	1033.456757136908	95.787584374643	610.659132379415	946.983398590850	37.362359273722	654.828543870868	1154.349081606882	41.000440972825	630.785457665562	1093.461942789741	37.983279617622	363.916233112743	1168.103283409145	39.631046070405	284.484731878495	1246.091396959655	107.754111734769	310.435006011959	1376.117712932995	66.985037814831	283.235480702022	849.778279997903	1136.665420684538	337.600320348402	776.742757307908	893.701159795778	410.233503770048	1399.558985856319	1174.582595001617	774.462514017871	1622.450345253713	1269.763311119078	692.486226359753	
125	54.740857142857	927.179202467025	1007.283908829147	592.544199138056	1048.623436463479	1431.153067999599	371.024315682223	1197.061380408599	1354.082261333458	486.378350082917	1183.696371361653	1430.961396723324	675.660608114189	1087.904044631620	1490.006721679384	523.053918182241	1174.047628661046	929.921010215651	643.915961751751	1091.199502751435	959.503324817548	382.641716029727	1174.360190489851	721.601249206987	606.408144929048	1091.197387231602	619.068756434145	681.403802150584	1138.659319367280	561.218961948050	586.979605394922	1124.396512299182	472.370761777320	592.851140365865	1156.732357352865	758.853560993441	391.366374185253	1068.534894520435	627.949702827907	325.413368208317	1181.980919197255	570.126869074574	369.933315021550	1195.598717326134	505.993095791607	366.191539985816	1178.842430791850	435.769640550063	350.857234031869	1103.279854984163	313.686754011975	294.535446111387	1187.309393712867	206.251546585672	337.582884792526	1081.608639318665	389.094048082062	603.408404912594	1003.841220722717	295.972780533485	674.751594340454	1016.018480090425	198.909356643093	603.916060742916	855.399519817700	46.852284079654	586.246856326506	1029.615218824953	95.887364426720	610.653317195619	943.032444736420	37.724326317706	654.899167873351	1150.360506967198	40.802486396819	630.827354562195	1089.248950623768	37.787372701031	365.008071716497	1163.923858574985	38.258788402096	285.529944706410	1242.810525129487	105.156992979257	311.459401429145	1372.340620780434	62.438978669146	284.511436990405	853.308741756128	1133.239213545960	332.069570308100	783.498687697813	889.004579669053	403.456208787634	1399.063013583650	1173.567254749927	769.082662765378	1620.517921014578	1271.300382712242	686.283748012418	
126	54.761428571429	928.172778814719	1006.811058669477	588.585049194843	1048.946760865271	1430.706539003619	366.446811300052	1197.393064776007	1354.188334717360	482.201902186756	1183.335438653345	1430.924526113771	671.533753716716	1087.740315721425	1489.879399448095	518.549951229417	1175.208859454823	929.968160125923	640.316220376913	1092.492130788090	958.900244858325	379.016831143107	1174.910691071988	721.280702812236	603.387968753447	1091.190557612979	619.172258562468	678.782511468334	1138.250364600592	560.767711712751	584.691827028591	1123.266226980768	471.891379864687	590.918644982456	1157.852750394483	757.408881050715	388.062493293287	1068.151281859031	626.832618235412	323.354469618100	1181.442773777714	568.779181539354	367.743220247240	1194.172064272041	504.497629752885	364.477226947471	1177.427632836967	434.229221334066	349.476561118339	1101.239118454923	312.333534239344	293.787800342036	1184.446229566307	204.656130939562	337.399089993709	1079.902004082283	388.898856563540	601.862794458876	1001.560728032907	296.652601946428	673.863467383987	1013.041032595550	199.122592240860	603.402726015321	851.485107111963	47.829843859184	586.458079112811	1025.855674280332	96.025319542631	610.655443657792	939.128236996266	38.217197276510	654.986075656214	1146.406759761567	40.566371765217	630.873965269294	1084.716605398648	37.886692863455	365.695311324500	1159.436779495604	37.273687558815	286.183600271541	1239.263324499598	102.935217915110	312.164930968606	1368.315891407828	58.265419208688	285.389377202637	857.288940431730	1130.019354459882	325.539971608520	791.280025752138	884.225663466555	394.904850454268	1397.912124482217	1172.298031447081	764.290211585420	1618.671583700903	1271.061340586753	680.791653324617	
127	54.782000000000	929.160557231261	1006.682850811736	584.335262464242	1049.512921354352	1430.560053517567	361.680993989873	1197.885027792311	1354.544672594577	477.905018649133	1183.062148743220	1431.145021966252	667.294643105322	1087.710698482741	1490.011419830026	513.884880712729	1176.284400271755	930.207687371189	636.484637787330	1093.861386884120	958.700647588449	375.139086248576	1175.228982089506	721.127979686087	600.218706909790	1090.930976663844	619.531856787484	676.058708526751	1137.594153471432	560.514786273126	582.332928582272	1121.928376019195	471.670075776465	588.962306441691	1159.337288503617	756.703440466078	384.737353442975	1068.850278716932	626.292154887734	320.859555072815	1181.859174652421	568.065544396074	365.472876533367	1193.863552387628	503.477517324020	362.646181345459	1176.927828759187	433.097141070363	348.007906644285	1099.987879346336	311.581022670027	292.614921771195	1181.859025932095	203.403937115435	337.046228336232	1078.034357860427	388.956427802537	600.314369308371	999.137102350779	297.578613837561	672.948919884708	1010.043707228429	199.555684354485	602.908544975941	847.613431569655	49.051754711716	586.692448204266	1022.166270885211	96.200260555976	610.662576112624	935.259493770620	38.839687399171	655.084012207772	1142.476311018051	40.299349665935	630.925271826285	1080.112356631228	38.179478638895	366.032514507662	1154.880946307387	36.660783872898	286.506586622191	1235.595907806040	101.174671894734	312.602974650530	1364.227708823619	54.703017081326	285.907803743858	861.630230707910	1127.147346972884	318.113233979016	799.959759121105	879.572686967883	384.737117923311	1396.283319498485	1170.913887890662	760.042679533722	1617.096783677612	1269.248019190195	675.985137765137	
128	54.802571428571	930.096268954945	1006.887943268406	579.730401422423	1050.350112962827	1430.695196321400	356.737991308339	1198.543128745269	1355.106285874548	473.502581945555	1182.875396118641	1431.574554669653	662.945363228709	1087.842822431197	1490.372101718718	509.079996828487	1177.207527652031	930.613706733347	632.413176446117	1095.297853735768	958.870296865590	370.982379789432	1175.225489548218	721.129064772949	596.910167160318	1090.325358145200	620.145696540718	673.240882364525	1136.615430541342	560.456128465135	579.921415216082	1120.317603099096	471.705233468841	587.005924685426	1161.135691893106	756.680881209480	381.398815056071	1070.548909705601	626.234155453077	317.973539376599	1183.144929174616	567.891022858254	363.149148246998	1194.597673066971	502.853386740943	360.754660080436	1177.276888697371	432.309439675718	346.498242517263	1099.512348366267	311.332078802306	291.111292795297	1179.583311104490	202.461711812885	336.618828688945	1075.954667108937	389.259127147009	598.774989401099	996.518325463728	298.735228805809	671.999097183030	1006.995437354982	200.196457928608	602.432754229866	843.771031407862	50.492963093998	586.931403132893	1018.526367994553	96.409339147430	610.670744288107	931.407822353979	39.581226814811	655.184837822040	1138.550361283160	40.011651648084	630.980710655714	1075.587982867800	38.581878991377	366.109200894901	1150.399424435903	36.377314336924	286.590234013590	1231.894335193506	99.889608550509	312.849985059055	1360.179620203865	51.846413466019	286.135794310791	866.274805263791	1124.696751617346	309.881736279291	809.444909236328	875.197141960312	373.128914474144	1394.319796547123	1169.510894323345	756.257871818369	1615.909463035929	1266.026809001588	671.839274125068	
129	54.823142857143	930.934094240690	1007.373505383566	574.695557557991	1051.487346994212	1431.056026147706	351.606854580441	1199.367886904656	1355.804023127480	469.003469805777	1182.748220616471	1432.144680916535	658.480588783998	1088.151467540785	1490.904282450191	504.133425813684	1177.921685342579	931.141328171171	628.103741070709	1096.806451410550	959.326245952072	366.529472475515	1174.865175347722	721.252828085259	593.480954613306	1089.322409593864	620.985122931092	670.325904653095	1135.296301916556	560.564926108034	577.470076540057	1118.421013295728	471.963606391432	585.057611396138	1163.187335674233	757.208024769433	378.050043536775	1073.082046557011	626.521498030068	314.764388489275	1185.156542684063	568.119611942838	360.794422307328	1196.231746547845	502.510871063865	358.838546676543	1178.344010880606	431.769154086308	344.971355961855	1099.709614945962	311.454390689227	289.386702711909	1177.593846008003	201.767203262266	336.194143877421	1073.647834103082	389.771084825706	597.240833856558	993.681042675373	300.089595086391	670.997272080153	1003.874851866869	201.013850876352	601.966874794545	839.938833655493	52.115201318260	587.154389687307	1014.909921946468	96.649714155096	610.676601910138	927.549632702156	40.425004817633	655.278962602601	1134.604288133062	39.714836125791	631.039074518427	1071.211137709713	39.030218183586	366.024511612106	1146.053046000079	36.360206103852	286.531546679997	1228.195398407194	99.036787840839	312.984565398230	1356.209548650630	49.672077256765	286.154666524908	871.207691565767	1122.671355532834	300.918090137046	819.686028883192	871.186380945227	360.257471671611	1392.110000282065	1168.129712516265	752.824171507331	1615.138682018242	1261.504799838668	668.329511047051	
